# xmcd
#
# Track frame offsets: 
#        150
#        15399
#        26787
#        41361
#        60182
#        84109
#        103381
#        119992
#        140528
#        156164
#        175644
#
# Disc length: 2519 seconds
#
# Revision: 2
# Processed by: cddbd v1.5.2PL0 Copyright (c) Steve Scherf et al.
# Submitted via: ExactAudioCopy v0.95a5
#
DISCID=8609d50b
DTITLE=Starsailor - All The Plans
DYEAR=2009
DGENRE=Pop
TTITLE0=Tell Me It's Not Over
TTITLE1=Boy In Waiting
TTITLE2=The Thames
TTITLE3=All The Plans
TTITLE4=Neon Sky
TTITLE5=You Never Get What You Deserve
TTITLE6=Hurts Too Much
TTITLE7=Stars And Stripes
TTITLE8=Change My Mind
TTITLE9=Listen Up
TTITLE10=Safe At Home
EXTD=
EXTT0=
EXTT1=
EXTT2=
EXTT3=
EXTT4=
EXTT5=
EXTT6=
EXTT7=
EXTT8=
EXTT9=
EXTT10=
PLAYORDER=
